<?xml version="1.0" encoding="UTF-8"?>
<svg id="Camada_1" xmlns="http://www.w3.org/2000/svg" version="1.1" viewBox="0 0 1679.8 480.9">
  <!-- Generator: Adobe Illustrator 29.1.0, SVG Export Plug-In . SVG Version: 2.1.0 Build 142)  -->
  <defs>
    <style>
      .st0 {
        isolation: isolate;
      }

      .st1 {
        fill: #0090d4;
      }
    </style>
  </defs>
  <path class="st1" d="M1560.4,347.3h0"/>
  <g>
    <path class="st1" d="M157.4,477.8c-13.6,0-25.9-3.4-37-11.9-19.6-15-37.4-32-54.2-50-19.3-20.6-37.5-42-52.8-65.8-2.5-3.9-4.7-7.9-7.1-11.9-6.9-11.8-7.8-24.3-4.1-37.3,7.2-25,18.4-48.3,31-70.9,8.9-15.9,18.6-31.2,30.6-44.9,1.6-1.8,3.2-3.5,4.8-5.2,4.1-4.2,8.5-3.8,11.9.9,6.9,9.5,13.7,19,20.6,28.5,3.2,4.3,6.3,8.7,9.8,12.8,3.4,3.9,3.4,7.8,1,12.1-5.4,9.7-11,19.5-16.2,29.3-7.5,14.4-14.5,29-18.1,44.9-2,8.7-.9,16.3,4.8,23.6,16.9,21.4,36.3,40,58.1,56.5,10.9,8.2,22.4,8.9,35.1,6,23.7-5.4,46-14.6,67.7-25.3,50.6-24.9,97.4-55.7,138.8-94.1,11.6-10.7,22-22.7,32.8-34.2,3.3-3.6,5.5-3.7,8.1.4,3.9,6.3,7.5,12.8,11.2,19.2,1.8,3.1,1.4,6-.6,9-10.3,16.2-22.6,30.9-35.8,44.8-52.9,55.9-112.6,103.1-180.3,140.1-13.4,7.4-27.4,13.8-41.5,20-5.8,2.5-12.4,3-18.6,4.4,0-.3-.1-.6-.2-1h.2,0Z"/>
    <path class="st1" d="M529.5,336.4c0,15.5-5.1,30.1-11.4,44-13.1,29-28.9,56.3-48.9,81.1-4,4.9-8.5,9.4-12.9,13.9-5.1,5.3-11.4,6.4-18.1,4.7-35.1-8.9-67.7-23.5-97.1-44.8-1.5-1.1-3-2.6-3.9-4.2-1.6-2.8-.9-5.5,1.6-7.4,14.4-11.8,28.8-23.5,43.2-35.2,3.8-3.1,8.1-3.2,13.5,0,8.9,5.3,17.5,11,26.5,15.9,6.4,3.5,13.2,6.2,19.9,9,6.1,2.5,12.1,1.5,16.6-3.3,4.8-5,9.6-10.2,13.3-16,9.2-14.1,15.6-29.6,18.2-46.4,1.8-11.4-.2-22.5-3.3-33.4-7.5-26.4-19.8-50.7-33.5-74.4-24-41.3-52.4-79.4-84.5-114.8-.6-.7-1.3-1.4-1.9-2.2-1.6-2-1.1-4,1.1-4.6,5.7-1.6,11.4-2.8,17.2-3.8,1.3-.2,3.2.8,4.2,1.8,50.4,49,93.6,103.3,123.2,167.5,5,10.8,9.2,22,13,33.2,2.1,6.2,2.7,12.9,4,19.4"/>
    <path class="st1" d="M528,336.5h0c0,15.6-4.4,30-10.7,43.9-13.1,29-28.9,56.3-48.9,81.1-4,4.9-8.5,9.4-12.9,13.9-5.1,5.3-11.4,6.4-18.1,4.7-35.1-8.9-67.7-23.5-97.1-44.8-1.5-1.1-3-2.6-3.9-4.2-1.6-2.8-.9-5.5,1.6-7.4,14.4-11.8,28.8-23.5,43.2-35.2,3.8-3.1,8.1-3.2,13.5,0,8.9,5.3,17.5,11,26.5,15.9,6.4,3.5,13.2,6.2,19.9,9,6.1,2.5,12.1,1.5,16.6-3.3,4.8-5,9.6-10.2,13.3-16,9.2-14.1,15.6-29.6,18.2-46.4,1.8-11.4-.2-22.5-3.3-33.4-7.5-26.4-19.8-50.7-33.5-74.4-24-41.3-52.4-79.4-84.5-114.8-.6-.7-1.3-1.4-1.9-2.2-1.6-2-1.1-4,1.1-4.6,5.7-1.6,11.4-2.8,17.2-3.8,1.3-.2,3.2.8,4.2,1.8,50.4,49,93.6,103.3,123.2,167.5,5,10.8,9.2,22,13,33.2,2.1,6.2,2.7,12.9,4,19.4-.3,0-.6,0-.9.1"/>
    <path class="st1" d="M191.4,0c31.1,2.9,61.1,9.6,89.9,21.2,1.7.7,3.4,1.3,5,2.3,1.1.7,2.9,2.4,2.7,2.9-.5,1.3-1.9,2.7-3.2,3.3-5.5,2.3-11.2,4.3-16.8,6.5-3.4,1.3-6.7,2.9-10,4.3-4,1.8-8,1.6-12.2.3-15.4-4.8-30.8-9.4-46.2-13.9-10.8-3.1-21.1-1.7-31.3,3.1-11.9,5.6-23.4,11.7-33.9,19.8-7.9,6.1-10.7,13.2-7.8,23,4.6,15.5,11.1,30.2,18.3,44.6,22.9,45.8,49.5,89.2,81.3,129.3,3.3,4.2,6.9,8.2,10.3,12.4,2.4,2.9,2.4,4.6-.7,6.7-5.4,3.5-10.9,6.8-16.5,10.1-2.7,1.6-5.1,1.1-7.6-1-19-16.1-35.8-34.4-51.9-53.3-27.7-32.7-53.2-67-74.8-104-6.8-11.7-12.8-23.8-18.5-36.1-4.7-10-3.1-19.4,4.9-27.5,10.4-10.5,22.9-18.1,35.7-25.1,20.3-11.1,41.4-20.5,64-25.9C178.4,1.4,184.9,1,191.4,0h0Z"/>
    <path class="st1" d="M489,170.3c-.4,6-.6,12-1.3,18-.2,1.8-1.2,4.1-2.6,4.9-2.2,1.2-3.5-1.2-4.7-2.8-10.1-13-20.2-26-30.4-38.8-2.3-2.9-3.4-5.9-3.3-9.4,0-9.3,0-18.7-.1-28,0-4.6-1.8-8.5-5.2-11.7-15-14.3-31.3-26.9-49.6-36.7-8.8-4.7-18.4-4.9-28-4.7-21.3.5-41.6,6.2-61.4,13.4-32.6,11.8-63.2,27.9-93.2,45.1-6.9,4-7,4-11.1-2.8-1.6-2.7-3-5.5-4.5-8.2-1.6-3-1.1-5.2,1.7-7.5,19.8-16.4,41.4-30,64.4-41.3,22.7-11.1,46.2-20.2,71.3-24.6,13.1-2.3,26.4-4.1,39.6-.3,10,2.9,18.8,8.5,27.4,14.1,25.2,16.7,48.2,36,69.2,57.7,14.2,14.6,20.3,32,21.2,51.8.2,4,0,7.9,0,11.9h.6,0Z"/>
  </g>
  <g class="st0">
    <g class="st0">
      <path class="st1" d="M638.4,428.1c.7.5,1.7,1,3.1,1.5,1.4.5,3.1.7,5,.7s3.4-.3,4.6-.9c1.2-.6,2.1-1.5,2.7-2.8.6-1.2,1-2.8,1.3-4.8.2-1.9.4-4.2.4-6.9v-23.9h7.2v22.9c0,3.3-.2,6.4-.5,9.2-.4,2.8-1.1,5.2-2.1,7.3-1.1,2.1-2.7,3.6-4.8,4.7s-4.9,1.7-8.5,1.7-3.9-.2-5.6-.7c-1.6-.5-3.1-1.2-4.5-2.1l1.7-5.9h0Z"/>
    </g>
    <g class="st0">
      <path class="st1" d="M670.7,403.3h6.9s0,0,0,.1v18.8c0,3,.5,5.2,1.6,6.7s2.7,2.3,4.8,2.3,2.6-.3,3.9-.8c1.3-.5,2.4-1.4,3.5-2.4s0,0,0,0c1-1.1,1.9-2.4,2.5-3.9s0,0,0,0v-20.5s0-.1,0-.1h6.7s0,0,0,.1v25.2c0,.8,0,1.4.4,1.7.3.3.7.5,1.4.6s0,0,0,.1v5.4s0,.1,0,.1c-.6,0-1.2.2-1.7.3s0,0,0,0h-1.3c-1.3,0-2.3-.3-3.2-1s-1.5-2.1-1.5-2.7v-2.9c0-.1-.2-.2-.2,0-1.6,2.2-3.5,3.9-5.8,5.1-2.4,1.2-5,1.9-7.9,1.9s-6.1-1.1-7.9-3.4c-1.8-2.3-2.7-5.7-2.7-10.1"/>
      <path class="st1" d="M670.7,423.6"/>
    </g>
    <g class="st0">
      <path class="st1" d="M740.1,436.5h-7v-18.5c0-3.1-.5-5.3-1.5-6.8-1-1.4-2.5-2.2-4.4-2.2s-2.7.3-4.1,1c-1.3.7-2.6,1.6-3.6,2.7-1.1,1.2-1.8,2.5-2.3,4v19.7h-7v-33.2h6.4v6.7c.9-1.5,2-2.8,3.4-3.8,1.4-1.1,3-1.9,4.7-2.5s3.6-.9,5.6-.9,3.7.4,5,1.1,2.3,1.7,3.1,2.9c.7,1.2,1.3,2.7,1.5,4.3.3,1.6.4,3.3.4,5.2v20.2h-.2Z"/>
    </g>
    <g class="st0">
      <path class="st1" d="M766.6,434.9c-.6.3-1.3.6-2.2,1s-1.9.6-3,.9-2.3.4-3.5.4-2.8-.3-4-.8-2.2-1.3-3-2.5c-.7-1.1-1.1-2.6-1.1-4.4v-20.8h-4.4v-5.4h4.4v-11h7v11h7.3v5.4h-7.3v18.6c0,1.1.5,2,1.1,2.5.7.6,1.5.8,2.5.8s1.9-.2,2.8-.5c.9-.3,1.6-.6,2-.8l1.5,5.6h0Z"/>
    </g>
    <g class="st0">
      <path class="st1" d="M786.1,437.1c-2.6,0-5-.5-7.1-1.4s-3.9-2.2-5.4-3.8c-1.5-1.6-2.7-3.4-3.5-5.5-.8-2-1.2-4.2-1.2-6.6s.4-4.5,1.2-6.6,2-3.9,3.5-5.5,3.3-2.8,5.4-3.7c2.1-.9,4.5-1.4,7.1-1.4s5,.5,7.1,1.4,3.9,2.2,5.4,3.7c1.5,1.6,2.7,3.4,3.5,5.5s1.2,4.3,1.2,6.6-.4,4.5-1.2,6.6-2,3.9-3.5,5.5-3.3,2.9-5.4,3.8c-2.1.9-4.5,1.4-7.1,1.4ZM776.1,420c0,2.1.4,4,1.3,5.7s2.1,3,3.6,4,3.2,1.5,5.1,1.5,3.5-.5,5-1.5,2.7-2.3,3.6-4c.9-1.7,1.3-3.6,1.3-5.6s-.4-4-1.3-5.7c-.9-1.7-2.1-3-3.6-4s-3.2-1.5-5-1.5-3.6.5-5.1,1.5-2.7,2.3-3.6,4c-.9,1.7-1.3,3.6-1.3,5.7h0Z"/>
      <path class="st1" d="M821.5,437.1c-2.8,0-5.5-.5-8-1.4s-4.7-2.3-6.5-4.1l2.6-4.7c1.9,1.7,3.9,2.9,5.8,3.7,1.9.8,3.9,1.2,5.8,1.2s3.6-.4,4.8-1.1,1.9-1.8,1.9-3.2-.3-1.8-1-2.3c-.6-.5-1.6-1-2.8-1.3-1.2-.4-2.7-.8-4.4-1.3-2.4-.7-4.4-1.5-6-2.3s-2.8-1.7-3.6-2.9c-.8-1.1-1.2-2.6-1.2-4.4s.6-4,1.7-5.5c1.1-1.5,2.7-2.7,4.6-3.5,2-.8,4.3-1.2,6.9-1.2s4.7.4,6.8,1.1,3.9,1.9,5.5,3.5l-3,4.7c-1.5-1.4-3-2.4-4.6-3s-3.2-1-5-1-2,.1-2.9.3c-.9.2-1.7.7-2.3,1.3-.6.6-.9,1.5-.9,2.6s.3,1.6.8,2.2c.5.5,1.3,1,2.3,1.4s2.3.8,3.8,1.3c2.6.8,4.8,1.5,6.7,2.2,1.8.7,3.3,1.7,4.3,2.8,1,1.2,1.5,2.8,1.5,4.8,0,3.2-1.2,5.7-3.6,7.5-2.4,1.8-5.6,2.7-9.6,2.7"/>
      <path class="st1" d="M875.8,437.1c-2.7,0-5.1-.6-7.1-1.9s-3.7-2.9-4.9-4.9v19.8h-7v-46.8h6.2v6c1.3-2,2.9-3.6,5-4.8,2-1.2,4.3-1.8,6.8-1.8s4.4.5,6.3,1.4,3.6,2.2,5,3.8c1.4,1.6,2.5,3.4,3.3,5.5s1.2,4.2,1.2,6.5-.6,6.1-1.9,8.7c-1.3,2.6-3,4.7-5.2,6.2s-4.8,2.3-7.7,2.3h0ZM873.5,431.1c1.5,0,2.8-.3,4.1-.9s2.3-1.5,3.1-2.5c.9-1.1,1.5-2.3,2-3.6.5-1.3.7-2.7.7-4.2s-.3-2.9-.8-4.3c-.5-1.3-1.2-2.5-2.2-3.5s-2.1-1.8-3.3-2.4c-1.3-.6-2.6-.9-4.1-.9s-1.8.2-2.8.5-1.9.8-2.8,1.4c-.9.6-1.6,1.3-2.2,2.1-.6.8-1.1,1.6-1.3,2.5v8.7c.6,1.3,1.4,2.5,2.4,3.6s2.1,1.9,3.4,2.6c1.3.6,2.6,1,3.9,1h-.1Z"/>
      <path class="st1" d="M894.6,426.8c0-2.1.6-4,1.8-5.5,1.2-1.6,2.9-2.8,5-3.7,2.1-.9,4.6-1.3,7.4-1.3s3,.1,4.6.3c1.6.2,2.9.6,4.1,1v-2.1c0-2.3-.7-4.1-2.1-5.4-1.4-1.3-3.4-2-6.1-2s-3.6.3-5.3,1-3.4,1.6-5.3,2.8l-2.4-4.7c2.2-1.5,4.4-2.6,6.7-3.3s4.6-1.1,7.1-1.1c4.5,0,8,1.2,10.6,3.5s3.9,5.7,3.9,10v12.3c0,.8,0,1.4.4,1.7.3.3.8.5,1.4.6v5.6c-.6.1-1.2.2-1.7.3h-1.3c-1.5,0-2.6-.4-3.4-1.1-.8-.7-1.2-1.6-1.3-2.6l-.2-1.9c-1.5,1.9-3.3,3.3-5.6,4.4-2.3,1-4.5,1.5-6.8,1.5s-4.2-.5-6-1.4-3.1-2.1-4.1-3.7-1.5-3.3-1.5-5.3h0ZM915.9,428.8c.5-.5.9-1.1,1.2-1.6s.4-1,.4-1.4v-3.8c-1.2-.5-2.5-.8-3.8-1s-2.6-.3-3.9-.3c-2.6,0-4.6.5-6.2,1.5-1.6,1-2.4,2.4-2.4,4.2s.3,1.9.8,2.8,1.3,1.6,2.3,2.1,2.2.8,3.7.8,3-.3,4.4-.9,2.5-1.3,3.4-2.3h0Z"/>
      <path class="st1" d="M951.9,409.1c-2.7,0-5.2.7-7.3,1.9-2.1,1.2-3.6,2.9-4.5,5.1v20.5h-7v-33.2h6.5v7.2c1.2-2.3,2.7-4.1,4.5-5.5,1.9-1.4,3.9-2.1,6-2.3h1.8v6.3Z"/>
      <path class="st1" d="M975.6,434.9c-.6.3-1.3.6-2.2,1-.9.3-1.9.6-3,.9s-2.3.4-3.5.4-2.8-.3-4-.8-2.2-1.3-3-2.5c-.7-1.1-1.1-2.6-1.1-4.4v-20.8h-4.4v-5.4h4.4v-11h7v11h7.3v5.4h-7.3v18.6c0,1.1.5,2,1.1,2.5.7.6,1.5.8,2.5.8s1.9-.2,2.8-.5c.9-.3,1.6-.6,2-.8l1.5,5.6h0Z"/>
      <path class="st1" d="M980.5,397.5v-7.7h7v7.7h-7ZM980.5,436.5v-33.5h7v33.5h-7Z"/>
      <path class="st1" d="M996.1,389.8h7v37.2c0,1.7.3,2.8.8,3.3s1.2.7,1.9.7,1.7,0,2.4-.3c.7-.2,1.4-.4,2-.6l1,5.6c-1,.4-2.2.8-3.6,1.1-1.4.3-2.7.4-3.8.4-2.4,0-4.3-.7-5.6-2s-2-3.2-2-5.6v-39.7h-.1Z"/>
      <path class="st1" d="M1045.3,436.5h-7v-18.5c0-3-.6-5.2-1.7-6.7s-2.7-2.2-4.7-2.2-2.5.3-3.8,1-2.5,1.6-3.5,2.7c-1,1.2-1.8,2.5-2.2,4v19.7h-7v-46.7h7v20.2c1.3-2.2,3-4,5.2-5.3s4.6-1.9,7.2-1.9,3.8.4,5.2,1.1c1.4.7,2.4,1.7,3.2,2.9.8,1.2,1.3,2.7,1.7,4.3.3,1.6.5,3.3.5,5.2v20.2h0Z"/>
      <path class="st1" d="M1051,426.8c0-2.1.6-4,1.8-5.5,1.2-1.6,2.9-2.8,5-3.7,2.1-.9,4.6-1.3,7.4-1.3s3,.1,4.6.3c1.6.2,2.9.6,4.1,1v-2.1c0-2.3-.7-4.1-2.1-5.4s-3.4-2-6.1-2-3.6.3-5.3,1c-1.7.7-3.4,1.6-5.3,2.8l-2.4-4.7c2.2-1.5,4.4-2.6,6.7-3.3s4.6-1.1,7.1-1.1c4.5,0,8,1.2,10.6,3.5s3.9,5.7,3.9,10v12.3c0,.8,0,1.4.4,1.7.3.3.8.5,1.4.6v5.6c-.6.1-1.2.2-1.7.3h-1.3c-1.5,0-2.6-.4-3.4-1.1s-1.2-1.6-1.3-2.6l-.2-1.9c-1.5,1.9-3.3,3.3-5.6,4.4-2.3,1-4.5,1.5-6.8,1.5s-4.2-.5-6-1.4-3.1-2.1-4.1-3.7-1.5-3.3-1.5-5.3h.1ZM1072.3,428.8c.5-.5.9-1.1,1.2-1.6.3-.5.4-1,.4-1.4v-3.8c-1.2-.5-2.5-.8-3.8-1s-2.6-.3-3.9-.3c-2.6,0-4.6.5-6.2,1.5s-2.4,2.4-2.4,4.2.3,1.9.8,2.8,1.3,1.6,2.3,2.1,2.2.8,3.7.8,3-.3,4.4-.9,2.5-1.3,3.4-2.3h0Z"/>
      <path class="st1" d="M1140.8,436.5h-7v-18.5c0-3.1-.5-5.3-1.5-6.8-1-1.4-2.5-2.2-4.5-2.2s-3.8.7-5.5,2.2-2.9,3.3-3.6,5.7v19.6h-7v-18.5c0-3.1-.5-5.3-1.5-6.8-1-1.4-2.5-2.2-4.4-2.2s-3.8.7-5.5,2.1-2.9,3.3-3.6,5.6v19.7h-7v-33.2h6.4v6.7c1.3-2.3,3.1-4.1,5.2-5.4,2.2-1.2,4.6-1.9,7.4-1.9s5,.7,6.6,2.2c1.6,1.4,2.6,3.2,3,5.4,1.4-2.5,3.2-4.3,5.3-5.6s4.5-1.9,7.3-1.9,3.6.4,4.9,1.1,2.3,1.7,3.1,2.9c.7,1.2,1.2,2.7,1.6,4.3.3,1.6.5,3.3.5,5.2v20.2h-.2Z"/>
      <path class="st1" d="M1163.9,437.1c-2.6,0-5-.5-7.1-1.4s-3.9-2.2-5.4-3.8c-1.5-1.6-2.7-3.4-3.5-5.5-.8-2-1.2-4.2-1.2-6.6s.4-4.5,1.2-6.6c.8-2.1,2-3.9,3.5-5.5s3.3-2.8,5.4-3.7,4.5-1.4,7.1-1.4,5,.5,7.1,1.4,3.9,2.2,5.4,3.7c1.5,1.6,2.7,3.4,3.5,5.5s1.2,4.3,1.2,6.6-.4,4.5-1.2,6.6c-.8,2.1-2,3.9-3.5,5.5s-3.3,2.9-5.4,3.8-4.5,1.4-7.1,1.4ZM1153.9,420c0,2.1.4,4,1.3,5.7s2.1,3,3.6,4,3.2,1.5,5.1,1.5,3.5-.5,5-1.5,2.7-2.3,3.6-4,1.3-3.6,1.3-5.6-.4-4-1.3-5.7-2.1-3-3.6-4-3.2-1.5-5-1.5-3.6.5-5.1,1.5-2.7,2.3-3.6,4-1.3,3.6-1.3,5.7h0Z"/>
      <path class="st1" d="M1199.3,437.1c-2.8,0-5.5-.5-8-1.4s-4.7-2.3-6.5-4.1l2.6-4.7c1.9,1.7,3.9,2.9,5.8,3.7,1.9.8,3.9,1.2,5.8,1.2s3.6-.4,4.8-1.1c1.2-.7,1.9-1.8,1.9-3.2s-.3-1.8-1-2.3c-.6-.5-1.6-1-2.8-1.3s-2.7-.8-4.4-1.3c-2.4-.7-4.4-1.5-6-2.3s-2.8-1.7-3.6-2.9c-.8-1.1-1.2-2.6-1.2-4.4s.6-4,1.7-5.5,2.7-2.7,4.6-3.5c2-.8,4.3-1.2,6.9-1.2s4.7.4,6.8,1.1c2.1.7,3.9,1.9,5.5,3.5l-3,4.7c-1.5-1.4-3-2.4-4.6-3s-3.2-1-5-1-2,.1-2.9.3c-.9.2-1.7.7-2.3,1.3-.6.6-.9,1.5-.9,2.6s.3,1.6.8,2.2c.5.5,1.3,1,2.3,1.4s2.3.8,3.8,1.3c2.6.8,4.8,1.5,6.7,2.2,1.8.7,3.3,1.7,4.3,2.8,1,1.2,1.5,2.8,1.5,4.8,0,3.2-1.2,5.7-3.6,7.5s-5.6,2.7-9.6,2.7h-.4Z"/>
    </g>
    <g class="st0">
      <path class="st1" d="M1232.7,413.4c0-2.8.5-5.5,1.5-8.2s2.4-5.1,4.3-7.3c1.9-2.2,4.2-3.9,6.9-5.2,2.7-1.3,5.8-2,9.3-2s7.6.9,10.6,2.8,5.2,4.2,6.7,7.1l-5.6,3.8c-.9-1.8-1.9-3.3-3.2-4.4-1.3-1.1-2.7-1.8-4.2-2.2-1.5-.4-3-.6-4.4-.6-2.4,0-4.5.5-6.3,1.4-1.8,1-3.3,2.2-4.5,3.8-1.2,1.6-2.1,3.3-2.8,5.3-.6,2-.9,3.9-.9,5.9s.4,4.3,1.1,6.3,1.7,3.8,3,5.4,2.8,2.8,4.6,3.7c1.8.9,3.8,1.3,5.9,1.3s3-.3,4.5-.8c1.6-.5,3-1.3,4.4-2.4,1.3-1.1,2.4-2.5,3.2-4.3l6,3.4c-.9,2.3-2.4,4.2-4.4,5.8-2,1.6-4.2,2.8-6.7,3.6-2.5.8-4.9,1.2-7.3,1.2s-6.1-.7-8.8-2c-2.6-1.3-4.9-3.1-6.8-5.4-1.9-2.2-3.4-4.8-4.5-7.6-1.1-2.8-1.6-5.6-1.6-8.5h0Z"/>
    </g>
    <g class="st0">
      <path class="st1" d="M1293.4,437.1c-2.6,0-5-.5-7.1-1.4s-3.9-2.2-5.4-3.8c-1.5-1.6-2.7-3.4-3.5-5.5-.8-2-1.2-4.2-1.2-6.6s.4-4.5,1.2-6.6c.8-2.1,2-3.9,3.5-5.5s3.3-2.8,5.4-3.7,4.5-1.4,7.1-1.4,5,.5,7.1,1.4,3.9,2.2,5.4,3.7c1.5,1.6,2.7,3.4,3.5,5.5s1.2,4.3,1.2,6.6-.4,4.5-1.2,6.6c-.8,2.1-2,3.9-3.5,5.5s-3.3,2.9-5.4,3.8-4.5,1.4-7.1,1.4ZM1283.4,420c0,2.1.4,4,1.3,5.7s2.1,3,3.6,4,3.2,1.5,5.1,1.5,3.5-.5,5-1.5,2.7-2.3,3.6-4,1.3-3.6,1.3-5.6-.4-4-1.3-5.7-2.1-3-3.6-4-3.2-1.5-5-1.5-3.6.5-5.1,1.5-2.7,2.3-3.6,4-1.3,3.6-1.3,5.7h0Z"/>
      <path class="st1" d="M1346.9,436.5h-7v-18.5c0-3.1-.5-5.3-1.5-6.8-1-1.4-2.5-2.2-4.4-2.2s-2.7.3-4.1,1c-1.3.7-2.6,1.6-3.6,2.7-1.1,1.2-1.8,2.5-2.3,4v19.7h-7v-33.2h6.4v6.7c.9-1.5,2-2.8,3.4-3.8,1.4-1.1,3-1.9,4.7-2.5s3.6-.9,5.6-.9,3.7.4,5,1.1,2.3,1.7,3.1,2.9c.7,1.2,1.3,2.7,1.5,4.3.3,1.6.4,3.3.4,5.2v20.2h-.2Z"/>
      <path class="st1" d="M1385.1,436.5h-7v-18.5c0-3-.6-5.2-1.7-6.7s-2.7-2.2-4.7-2.2-2.5.3-3.8,1-2.5,1.6-3.5,2.7c-1,1.2-1.8,2.5-2.2,4v19.7h-7v-46.7h7v20.2c1.3-2.2,3-4,5.2-5.3s4.6-1.9,7.2-1.9,3.8.4,5.2,1.1c1.4.7,2.4,1.7,3.2,2.9.8,1.2,1.3,2.7,1.7,4.3.3,1.6.5,3.3.5,5.2v20.2h0Z"/>
      <path class="st1" d="M1408.5,437.1c-2.6,0-5-.5-7.1-1.4s-3.9-2.2-5.5-3.7c-1.5-1.6-2.7-3.4-3.6-5.5-.8-2.1-1.2-4.2-1.2-6.6s.7-6,2.2-8.6c1.4-2.6,3.5-4.7,6.1-6.3,2.6-1.6,5.7-2.4,9.2-2.4s6.5.8,9.1,2.4c2.5,1.6,4.5,3.7,5.9,6.2,1.4,2.6,2.1,5.3,2.1,8.3s0,1,0,1.4v1.1h-26.8c0,1.9.7,3.6,1.6,5.1s2.2,2.6,3.7,3.4,3.1,1.2,4.8,1.2,3.7-.5,5.3-1.4c1.7-.9,2.8-2.2,3.4-3.7l6,1.7c-.7,1.6-1.8,3.1-3.3,4.4s-3.2,2.3-5.2,3.1c-2,.7-4.2,1.3-6.5,1.3h-.2ZM1398.4,417.6h20.2c0-1.9-.7-3.5-1.6-5-1-1.4-2.2-2.6-3.6-3.4-1.5-.8-3.1-1.2-4.9-1.2s-3.4.4-4.8,1.2c-1.5.8-2.7,1.9-3.6,3.4-.9,1.4-1.5,3.1-1.6,5h0ZM1408.7,437.1h0"/>
      <path class="st1" d="M1443.9,436.9c-1.7-.2-2.3-.3-4.4-1.2s-3.9-2.2-5.5-3.8c-1.5-1.6-2.7-3.4-3.6-5.5s-1.2-4.3-1.2-6.6.7-6,2.1-8.6,3.4-4.7,6-6.2c2.6-1.6,5.6-2.3,9.2-2.3s6.4.8,8.9,2.3,4.4,3.5,5.6,6l-6.8,2.2c-.8-1.4-1.8-2.5-3.2-3.3-1.4-.8-2.9-1.2-4.6-1.2s-3.6.5-5.1,1.4-2.7,2.2-3.6,3.9c-.9,1.7-1.3,3.6-1.3,5.8s.4,4,1.3,5.7,2.1,3.1,3.6,4c1.5,1,3.2,1.5,5.1,1.5s2.3-.2,3.4-.6,2-1,2.8-1.7,1.4-1.5,1.7-2.3l6.9,2c-.7,1.7-1.8,3.1-3.2,4.4-1.4,1.3-3.1,2.3-5.1,3-1.9.7-4.1,1.1-6.5,1.1"/>
      <path class="st1" d="M1467.2,397.5v-7.7h7v7.7h-7ZM1467.2,436.5v-33.5h7v33.5h-7Z"/>
      <path class="st1" d="M1533.8,436.5h-7v-18.5c0-3.1-.5-5.3-1.5-6.8-1-1.4-2.5-2.2-4.5-2.2s-3.8.7-5.5,2.2-2.9,3.3-3.6,5.7v19.6h-7v-18.5c0-3.1-.5-5.3-1.5-6.8-1-1.4-2.5-2.2-4.4-2.2s-3.8.7-5.5,2.1-2.9,3.3-3.6,5.6v19.7h-7v-33.2h6.4v6.7c1.3-2.3,3.1-4.1,5.2-5.4,2.2-1.2,4.6-1.9,7.4-1.9s5,.7,6.6,2.2c1.6,1.4,2.6,3.2,3,5.4,1.4-2.5,3.2-4.3,5.3-5.6s4.5-1.9,7.3-1.9,3.6.4,4.9,1.1,2.3,1.7,3.1,2.9c.7,1.2,1.2,2.7,1.6,4.3.3,1.6.5,3.3.5,5.2v20.2h-.2Z"/>
      <path class="st1" d="M1557.1,437.1c-3.8,0-5-.5-7.1-1.4s-3.9-2.2-5.5-3.7c-1.5-1.6-2.7-3.4-3.6-5.5-.8-2.1-1.2-4.2-1.2-6.6s.7-6,2.2-8.6c1.4-2.6,3.5-4.7,6.1-6.3,2.6-1.6,5.7-2.4,9.2-2.4s6.5.8,9.1,2.4c2.5,1.6,4.5,3.7,5.9,6.2,1.4,2.6,2.1,5.3,2.1,8.3s0,1,0,1.4v1.1h-26.8c0,1.9.7,3.6,1.6,5.1s2.2,2.6,3.7,3.4,3.1,1.2,4.8,1.2,3.7-.5,5.3-1.4c1.7-.9,2.8-2.2,3.4-3.7l6,1.7c-.7,1.6-1.8,3.1-3.3,4.4s-3.2,2.3-5.2,3.1c-2,.7-4.2,1.3-6.5,1.3M1547.1,417.6h20.2c0-1.9-.7-3.5-1.6-5-1-1.4-2.2-2.6-3.6-3.4-1.5-.8-3.1-1.2-4.9-1.2s-3.4.4-4.8,1.2c-1.5.8-2.7,1.9-3.6,3.4-.9,1.4-1.5,3.1-1.6,5h0Z"/>
    </g>
    <g class="st0">
      <path class="st1" d="M1610.1,436.5h-7v-18.5c0-3.1-.5-5.3-1.5-6.8-1-1.4-2.5-2.2-4.4-2.2s-2.7.3-4.1,1-2.5,1.6-3.6,2.7-1.8,2.5-2.3,4v19.7h-7v-33.2h6.4v6.7c.9-1.5,2-2.8,3.4-3.8s3-1.9,4.7-2.5,3.6-.9,5.6-.9,3.7.4,5,1.1,2.3,1.7,3.1,2.9c.7,1.2,1.3,2.7,1.5,4.3.3,1.6.4,3.3.4,5.2v20.2h-.2Z"/>
    </g>
    <g class="st0">
      <path class="st1" d="M1636.6,434.9c-.6.3-1.3.6-2.2,1s-1.9.6-3,.9-2.3.4-3.5.4-2.8-.3-4-.8-2.2-1.3-3-2.5-1.1-2.6-1.1-4.4v-20.8h-4.4v-5.4h4.4v-11h7v11h7.3v5.4h-7.3v18.6c0,1.1.5,2,1.1,2.5.7.6,1.5.8,2.5.8s1.9-.2,2.8-.5,1.6-.6,2-.8l1.5,5.6h-.1Z"/>
    </g>
    <g class="st0">
      <path class="st1" d="M1656.1,437.1c-2.6,0-5-.5-7.1-1.4s-3.9-2.2-5.4-3.8c-1.5-1.6-2.7-3.4-3.5-5.5-.8-2-1.2-4.2-1.2-6.6s.4-4.5,1.2-6.6,2-3.9,3.5-5.5,3.3-2.8,5.4-3.7c2.1-.9,4.5-1.4,7.1-1.4s5,.5,7.1,1.4,3.9,2.2,5.4,3.7c1.5,1.6,2.7,3.4,3.5,5.5s1.2,4.3,1.2,6.6-.4,4.5-1.2,6.6c-.8,2.1-2,3.9-3.5,5.5s-3.3,2.9-5.4,3.8-4.5,1.4-7.1,1.4ZM1646.1,420c0,2.1.4,4,1.3,5.7s2.1,3,3.6,4,3.2,1.5,5.1,1.5,3.5-.5,5-1.5,2.7-2.3,3.6-4,1.3-3.6,1.3-5.6-.4-4-1.3-5.7-2.1-3-3.6-4-3.2-1.5-5-1.5-3.6.5-5.1,1.5-2.7,2.3-3.6,4-1.3,3.6-1.3,5.7h0Z"/>
    </g>
  </g>
  <g>
    <path class="st1" d="M700.4,220.2c.6,1.3.6,2.3-.2,3-.8.7-2,1.4-3.5,2.2-1.5.7-3.2,1.6-5.2,2.6-1.9,1-3.8,2.5-5.5,4.5-1.8,1.9-3.2,4.4-4.5,7.5-1.2,3.1-1.8,6.9-1.8,11.6-.2,4.7.9,9.1,3.2,13.5,2.3,4.3,5.2,8.5,8.5,12.6s7.1,8.1,11.1,12c4,3.9,7.6,7.9,10.8,12,3.2,4.1,5.7,8.3,7.6,12.5,1.8,4.3,2.4,8.6,1.8,13.1-.8,4.5-3.3,8.3-7.6,11.4-4.3,3.1-9.4,5.5-15.5,7.2-6.1,1.7-12.7,2.6-19.7,2.8-7.1.2-13.7-.4-19.9-1.8-6.2-1.4-11.5-3.5-16-6.4-4.5-2.9-7.3-6.6-8.4-11.1-1.8-6.6-2.3-12.1-1.6-16.6.7-4.5,2-8.2,4-11.2,1.9-3,4.1-5.3,6.5-7,2.4-1.7,4.5-3,6.3-4,3.7-2.1,6.1-2.1,7.3,0,1.2,2.1.4,5.4-2.3,9.9-1.3,2.2-1.6,4.8-1,7.6.6,2.8,2.1,5.5,4.5,7.9,2.3,2.5,5.3,4.6,8.9,6.4,3.6,1.8,7.7,2.7,12.4,2.9,2.9.2,5.8-.1,8.8-.8,3-.7,5.4-1.8,7.3-3.4,1.9-1.5,3.1-3.4,3.5-5.5.4-2.2-.4-4.6-2.5-7.3-2.1-2.7-5.7-6.2-10.8-10.4-5.1-4.2-10.4-8.8-15.8-13.8-5.4-5.1-10.1-10.4-14.2-16.1-4.1-5.7-6.1-11.4-6.1-17.2,0-11.4,2-19.7,6.1-25,4.1-5.3,10.7-8.7,19.9-10.4,4.5-.8,8.2-1.2,11.1-1.1,2.9,0,5.2.4,6.9,1.1,1.7.6,2.9,1.4,3.7,2.3.8.9,1.4,1.7,1.9,2.5Z"/>
    <path class="st1" d="M732.4,245.5c2.2-4.3,5.2-8.1,8.9-11.3,3.7-3.2,7.7-5.8,12.2-7.8,4.4-2,9.1-3.5,14-4.5,4.9-1,9.7-1.4,14.3-1.4,4.8.3,8.9,1.9,12.4,4.7,3.4,2.8,5.9,6.4,7.3,10.8,1.4,4.4,1.7,9.4.8,14.8-.9,5.5-3.2,11-7.1,16.6-4.2,6.1-8.6,10.7-13.4,13.7-4.7,3.1-9.1,5.2-13.1,6.5-4.7,1.6-9.2,2.3-13.7,2.2-.2,6.1.5,11.3,1.9,15.6.6,1.9,1.4,3.7,2.3,5.4.9,1.7,2,3.2,3.5,4.5,1.4,1.3,3.2,2.2,5.3,2.8,2.1.6,4.5.6,7.2.1,5.8-1,10.5-3.1,14.1-6.4,3.6-3.3,6.6-6.6,9-10s4.4-6.3,5.9-8.8c1.5-2.5,3-3.4,4.5-2.8,1.8.8,2.7,2.8,2.8,6,0,3.2-.7,7-2.3,11.3-1.6,4.3-4,8.8-7.1,13.4-3.1,4.6-7.1,8.5-11.9,11.7-4.8,3.2-10.4,5.4-16.6,6.6-6.3,1.2-13.2.6-20.9-1.8-6.3-1.9-11.5-5-15.6-9.1-4.2-4.2-7.5-9-9.9-14.4-2.4-5.5-4-11.3-4.8-17.6-.8-6.3-.9-12.5-.4-18.7.6-6.2,1.8-12.1,3.6-17.7,1.8-5.6,4.1-10.4,6.9-14.4ZM754.8,271.7c2.1-.3,4.4-1,7-1.9,2.2-.8,4.7-2,7.3-3.6,2.6-1.6,5.5-3.9,8.5-6.7,2.9-2.7,4.9-5.4,5.9-7.9,1-2.6,1.6-4.7,1.8-6.5.2-2.1-.2-4-1-5.8-2.2-.6-4.7-.6-7.2,0-2.2.6-4.7,1.9-7.5,3.9-2.7,1.9-5.5,5-8.4,9.1-2.2,3.2-3.9,6.1-4.8,8.5-1,2.5-1.6,4.5-1.9,6.1-.3,1.9-.2,3.5.2,4.8Z"/>
    <path class="st1" d="M823.4,243.3c-1.8-1-3.4-1.5-4.8-1.7-1.4-.2-2.8-.2-4-.2s-2.2-.1-3.1-.4c-.9-.2-1.6-1-2.3-2.3-.5-1.1.3-2.6,2.3-4.6,2-1.9,4.7-3.5,8.1-4.8,3.4-1.3,7.1-1.8,11.3-1.6,4.2.2,8.2,1.9,12,4.9,3.4,2.9,6.1,5.7,8.3,8.3,2.2,2.6,3.9,5,5.2,7.1,1.4,2.4,2.5,4.7,3.1,7,4.5-4.3,9.1-7.9,14-10.8,4.2-2.6,8.8-4.7,14-6.3,5.1-1.6,10.3-1.7,15.4-.2,1.3.5,1.9,1.5,1.8,3,0,1.5-.7,3.2-1.9,4.9-1.2,1.8-2.9,3.5-4.9,5.1-2.1,1.6-4.6,2.7-7.5,3.4-5.6,1.3-10.1,3.7-13.4,7.2-3.3,3.5-5.8,7.7-7.6,12.4-1.8,4.7-2.9,9.8-3.4,15.2-.5,5.4-.7,10.6-.7,15.5.2,10.4-1.3,18.2-4.3,23.2-3.1,5.1-7.1,7.7-12.3,8.1-5.9.3-10.4-2.4-13.2-8.2s-4.3-15.6-4.3-29.4c.2-8.7.2-16.2.2-22.6s-.2-11.8-.7-16.2c-.5-4.4-1.3-7.9-2.4-10.5-1.1-2.6-2.7-4.4-4.8-5.5Z"/>
  </g>
  <g>
    <path class="st1" d="M643,184.5c-.9,0-1.8-.4-2.6-1.1-.8-.8-1.2-1.6-1.2-2.5s0-1.1.2-1.6l41.7-112.9c.4-1.3,1.1-2.4,2.2-3.4,1.1-1,2.7-1.5,4.7-1.5h26.3c2,0,3.6.5,4.7,1.5,1.1,1,1.9,2.1,2.2,3.4l41.6,112.9c.2.5.4,1,.4,1.6,0,.9-.4,1.8-1.2,2.5-.8.8-1.7,1.1-2.8,1.1h-21.8c-1.8,0-3.1-.4-4-1.3-.9-.9-1.5-1.7-1.7-2.4l-6.9-17.9h-47.4l-6.7,17.9c-.2.7-.8,1.5-1.6,2.4-.8.9-2.2,1.3-4.3,1.3h-21.8ZM684.8,137.5h33l-16.5-46.4-16.5,46.4Z"/>
    <path class="st1" d="M816.5,186.3c-8.8,0-16.5-1.6-23.3-4.7-6.7-3.2-12.1-7.8-16.1-13.8-4-6-6.1-13.3-6.5-21.7-.1-1.9-.2-4.2-.2-7.1s0-5.2.2-7.1c.4-8.6,2.5-15.9,6.4-21.9,3.9-6,9.3-10.6,16.1-13.8,6.8-3.2,14.6-4.7,23.4-4.7s15.2,1.1,21,3.4c5.9,2.3,10.6,5.1,14.2,8.5,3.6,3.4,6.3,6.9,8.2,10.5,1.8,3.6,2.8,6.7,2.9,9.4.1,1.2-.3,2.2-1.2,3.1-.9.9-2,1.3-3.2,1.3h-22.6c-1.3,0-2.3-.3-3-.9-.7-.6-1.4-1.5-2-2.6-1.4-3.6-3.2-6.2-5.4-7.7-2.2-1.5-5-2.3-8.4-2.3s-8.4,1.5-10.9,4.6c-2.5,3-3.9,7.7-4.2,14.1-.1,4.7-.1,8.9,0,12.5.4,6.4,1.8,11.1,4.3,14.1,2.5,2.9,6.1,4.4,10.8,4.4s6.6-.8,8.7-2.4c2.1-1.6,3.8-4.1,5.1-7.6.6-1.2,1.2-2,2-2.6.7-.6,1.7-.9,3-.9h22.6c1.2,0,2.2.4,3.2,1.2.9.8,1.4,1.9,1.2,3.2-.1,1.9-.7,4.2-1.8,6.9-1.1,2.7-2.7,5.5-5,8.4-2.2,2.9-5.2,5.6-8.8,8.1-3.6,2.5-8,4.5-13.1,6.1-5.1,1.6-11,2.4-17.8,2.4Z"/>
    <path class="st1" d="M906.6,186.3c-6.4,0-12.1-1.2-17.1-3.6-5-2.4-9-5.7-12-9.8-3-4.1-4.4-8.7-4.4-13.9,0-8.3,3.4-14.9,10.3-19.8,6.9-4.9,16-8.2,27.3-9.9l22.2-3.3v-2.5c0-4.2-.9-7.4-2.7-9.7-1.8-2.2-5-3.3-9.8-3.3s-6,.6-8.1,1.9c-2.1,1.3-3.7,3-4.9,5.3-1.1,1.5-2.5,2.3-4.4,2.3h-19.9c-1.3,0-2.3-.4-3-1.1-.7-.8-1-1.7-.9-2.7,0-2.1.8-4.5,2.4-7.3,1.6-2.8,4.1-5.5,7.4-8.2,3.3-2.7,7.6-4.9,12.8-6.7,5.2-1.8,11.5-2.6,19-2.6s14.1.9,19.5,2.6c5.4,1.8,9.9,4.2,13.3,7.4,3.4,3.2,5.9,6.9,7.5,11.2,1.6,4.3,2.4,9,2.4,14.2v53.5c0,1.2-.4,2.2-1.3,3.1s-1.9,1.3-3.1,1.3h-20.6c-1.3,0-2.4-.4-3.2-1.3-.8-.9-1.2-1.9-1.2-3.1v-6.2c-1.5,2.2-3.6,4.3-6.2,6.2-2.6,1.9-5.7,3.4-9.1,4.5-3.5,1.1-7.5,1.7-12.2,1.7ZM914.9,166.2c3.4,0,6.5-.7,9.3-2.2,2.8-1.5,5-3.8,6.6-6.9,1.6-3.1,2.4-7,2.4-11.7v-2.5l-15.1,2.6c-5.6.9-9.6,2.4-12.2,4.3-2.5,1.9-3.8,4.2-3.8,6.8s.6,3.7,1.8,5.1c1.2,1.4,2.8,2.5,4.7,3.3,2,.8,4.1,1.1,6.3,1.1Z"/>
    <path class="st1" d="M1018.1,186.3c-5.7,0-10.8-.9-15.4-2.7-4.6-1.8-8.5-4.5-11.7-8.1-3.3-3.6-5.8-7.9-7.5-13-1.8-5.1-2.8-10.9-3-17.5-.1-2.3-.2-4.4-.2-6.2s0-3.9.2-6.2c.2-6.2,1.2-11.9,3-17s4.3-9.4,7.5-13c3.2-3.6,7.1-6.3,11.7-8.3,4.6-1.9,9.8-2.9,15.5-2.9s11,1,15.3,2.9c4.3,1.9,7.9,4.4,10.8,7.5v-37.6c0-1.3.4-2.3,1.2-3.2.8-.8,1.9-1.2,3.2-1.2h21.7c1.2,0,2.2.4,3.1,1.2.9.8,1.3,1.9,1.3,3.2v116.1c0,1.2-.4,2.2-1.3,3.1-.9.9-1.9,1.3-3.1,1.3h-20.1c-1.3,0-2.4-.4-3.2-1.3-.8-.9-1.2-1.9-1.2-3.1v-5.6c-2.8,3.4-6.5,6.2-11,8.4-4.5,2.2-10.1,3.3-16.7,3.3ZM1027.8,162.7c3.9,0,7-.8,9.3-2.5,2.3-1.7,4-3.9,5.2-6.6,1.1-2.7,1.7-5.6,1.9-8.8.1-2.3.2-4.6.2-6.7s0-4.3-.2-6.5c-.1-2.9-.8-5.7-2-8.2-1.2-2.5-3-4.6-5.3-6.2-2.4-1.6-5.4-2.4-9.1-2.4s-7,.8-9.3,2.5c-2.3,1.6-4,3.9-5,6.7-1,2.8-1.6,5.9-1.9,9.3-.4,3.6-.4,7.3,0,10.9.2,3.4.9,6.5,1.9,9.3,1,2.8,2.7,5,5,6.7,2.3,1.6,5.4,2.5,9.3,2.5Z"/>
    <path class="st1" d="M1138.3,186.3c-14,0-25.1-3.8-33.4-11.3-8.3-7.5-12.6-18.6-13-33.4v-6.2c.4-9.3,2.5-17.2,6.3-23.8,3.8-6.6,9.2-11.7,16-15.1,6.8-3.5,14.8-5.2,23.9-5.2s19,2.1,25.8,6.2c6.8,4.1,11.9,9.7,15.4,16.7,3.4,7,5.1,15.1,5.1,24.1v4.2c0,1.3-.4,2.3-1.2,3.2-.8.8-1.9,1.2-3.2,1.2h-56.8v1.2c.1,3.4.7,6.5,1.9,9.3,1.1,2.8,2.8,5,5,6.7,2.2,1.6,4.9,2.5,8.1,2.5s4.4-.4,5.9-1.1c1.6-.8,2.9-1.6,4-2.6,1.1-1,1.9-1.8,2.5-2.5,1.1-1.3,1.9-2.1,2.6-2.4.6-.3,1.7-.4,3.1-.4h22c1.2,0,2.2.4,2.9,1.1.8.7,1.1,1.6,1,2.8-.1,2-1.1,4.4-3,7.2-1.9,2.8-4.6,5.6-8.3,8.4-3.6,2.8-8.1,5-13.6,6.8-5.4,1.8-11.8,2.6-19,2.6ZM1123.2,129.5h30v-.4c0-3.9-.6-7.2-1.7-9.9-1.1-2.8-2.8-4.9-5.1-6.4-2.3-1.5-5.1-2.3-8.3-2.3s-5.7.8-8,2.3c-2.2,1.5-4,3.7-5.2,6.4-1.2,2.8-1.8,6.1-1.8,9.9v.4Z"/>
    <path class="st1" d="M1205.6,184.5c-1.3,0-2.4-.4-3.2-1.3-.8-.9-1.2-1.9-1.2-3.1v-82.6c0-1.3.4-2.3,1.2-3.2.8-.8,1.9-1.2,3.2-1.2h19.4c1.3,0,2.4.4,3.2,1.2.8.8,1.2,1.9,1.2,3.2v6c2.4-3.2,5.7-5.9,9.9-8.4,4.3-2.4,9.3-3.7,15.1-3.8,13.7-.4,23.1,4.7,28.2,15.1,2.7-4.5,6.6-8.1,11.6-10.9,5-2.8,10.6-4.2,16.6-4.2s11.7,1.4,16.6,4.1c4.9,2.8,8.8,7,11.8,12.7,3,5.7,4.4,13,4.4,22.1v49.9c0,1.2-.4,2.2-1.2,3.1-.8.9-1.9,1.3-3.2,1.3h-20.6c-1.3,0-2.4-.4-3.3-1.3s-1.3-1.9-1.3-3.1v-48.7c0-4.1-.6-7.4-1.8-9.8-1.2-2.4-2.8-4.1-4.8-5.2-2-1.1-4.3-1.6-6.9-1.6s-4.2.5-6.3,1.6c-2.1,1.1-3.7,2.8-5,5.2-1.2,2.4-1.9,5.7-1.9,9.8v48.7c0,1.2-.4,2.2-1.2,3.1-.8.9-1.9,1.3-3.2,1.3h-20.6c-1.3,0-2.4-.4-3.2-1.3-.8-.9-1.2-1.9-1.2-3.1v-48.7c0-4.1-.7-7.4-2-9.8-1.3-2.4-3-4.1-5-5.2-2-1.1-4.2-1.6-6.6-1.6s-4.4.5-6.5,1.6c-2.1,1.1-3.7,2.8-5,5.2-1.2,2.4-1.9,5.6-1.9,9.6v48.9c0,1.2-.4,2.2-1.3,3.1s-1.9,1.3-3.1,1.3h-21.1Z"/>
    <path class="st1" d="M1368.1,79.9c-1.3,0-2.4-.4-3.2-1.2-.8-.8-1.2-1.9-1.2-3.2v-15.8c0-1.2.4-2.2,1.2-3.1.8-.9,1.9-1.3,3.2-1.3h21.3c1.2,0,2.2.4,3.1,1.3.9.9,1.3,1.9,1.3,3.1v15.8c0,1.3-.4,2.3-1.3,3.2-.9.8-1.9,1.2-3.1,1.2h-21.3ZM1368.3,184.5c-1.3,0-2.4-.4-3.2-1.3-.8-.9-1.2-1.9-1.2-3.1v-82.6c0-1.3.4-2.3,1.2-3.2.8-.8,1.9-1.2,3.2-1.2h21c1.3,0,2.4.4,3.2,1.2.8.8,1.2,1.9,1.2,3.2v82.6c0,1.2-.4,2.2-1.2,3.1-.8.9-1.9,1.3-3.2,1.3h-21Z"/>
    <path class="st1" d="M1480.3,207.4c-14.4,0-26.5-2.3-36.1-7-9.7-4.7-17-11.3-22-19.7-5-8.4-8.1-18.1-9.1-28.8-.1-1.6-.2-3.8-.4-6.5-.1-2.7-.2-5.6-.2-8.6s0-5.9.2-8.6c.1-2.7.2-4.8.4-6.3.7-7.4,2.6-14.4,5.6-21.2,3-6.7,7.2-12.7,12.6-17.9,5.4-5.2,12-9.3,19.7-12.3,7.8-3,16.8-4.5,27.1-4.5s22.7,1.4,31.1,4.1c8.4,2.8,15.2,6.7,20.5,11.7,5.3,5,9.2,11,11.8,17.8,2.6,6.9,4.2,14.3,4.8,22.2.2,2.5.4,5.1.4,7.8s0,5.4,0,8c0,2.6-.2,4.7-.3,6.3-.4,5.9-1.8,10.8-4.4,14.8-2.6,4-5.9,7-9.9,9-4,2-8.3,3-12.9,3s-7.3-.5-10.3-1.6c-3-1.1-5.4-2.3-7.2-3.6-1.8-1.3-3.2-2.6-4.2-3.8-.9,1.4-2.2,3-3.8,4.7-1.6,1.7-3.9,3.1-6.9,4.3-3,1.2-7.1,1.8-12.3,1.8-8.8,0-15.7-3.2-20.8-9.7-5.1-6.4-7.6-15.2-7.6-26.2s2.5-19.9,7.4-26.4c4.9-6.4,11.7-9.7,20.5-9.7s8.5.8,11.2,2.3c2.7,1.5,5,3.5,6.7,5.8v-2.3c0-1.3.4-2.3,1.2-3.2.8-.8,1.9-1.2,3.2-1.2h9.1c1.3,0,2.4.4,3.2,1.2.8.8,1.2,1.9,1.2,3.2v35.5c0,3.9.9,6.8,2.6,8.8,1.7,2,4,3,6.8,3s4.2-.6,5.6-1.8c1.4-1.2,2.3-2.8,2.8-4.6.5-1.8.8-3.5.8-5.2.1-2.6.2-5.5.3-8.9,0-3.3,0-6.8-.3-10.5-.6-8.9-2.5-16.3-5.9-22.2-3.3-5.9-8.5-10.3-15.6-13.2-7.1-2.9-16.7-4.3-28.8-4.3s-18.4,1.7-25,5c-6.6,3.3-11.7,8-15.3,14-3.6,6-5.9,12.9-6.8,20.8-.2,2-.4,4.8-.4,8.4,0,3.6,0,7.3,0,11,0,3.7.2,6.7.4,8.9,1.4,12.4,6.1,22.1,14,29,7.9,6.9,19.7,10.4,35.3,10.4s13.4-.4,17.8-1.3c4.4-.9,7.9-2.1,10.6-3.5,2.7-1.5,5.1-3,7.2-4.5.9-.7,1.8-1.3,2.6-1.8.8-.5,1.7-.7,2.9-.7h12.6c1.2,0,2.2.4,3.1,1.2.9.8,1.3,1.9,1.2,3.2,0,.5,0,.9-.3,1.3-.2.4-.4.8-.8,1.3-3.3,3.8-7.5,7.3-12.5,10.6-5,3.3-11.2,6-18.5,8.1-7.3,2-15.9,3.1-25.8,3.1ZM1477.7,155.3c4.7,0,8.3-1.5,10.6-4.6,2.3-3,3.5-7.8,3.5-14.2s-1.2-11.2-3.5-14.3c-2.3-3.1-5.8-4.7-10.6-4.7s-7.9,1.6-10.3,4.7c-2.4,3.1-3.6,7.9-3.6,14.3s.5,7.4,1.5,10.2c1,2.8,2.5,5,4.6,6.4,2.1,1.5,4.6,2.2,7.7,2.2Z"/>
  </g>
  <g>
    <path class="st1" d="M985.9,342.4c-11.1,0-20.7-1.8-28.8-5.5-8.1-3.6-14.3-9-18.7-16-4.4-7-6.9-15.8-7.4-26.2-.1-4.8-.2-10-.2-15.5s0-10.8.2-15.8c.5-10.2,3-18.9,7.5-26,4.5-7.1,10.8-12.5,18.8-16.2,8-3.6,17.6-5.5,28.6-5.5s15,1,21.7,2.9c6.6,1.9,12.4,4.7,17.4,8.4,5,3.7,8.8,8.1,11.6,13.4,2.8,5.2,4.2,11.1,4.4,17.7.1,1.1-.2,1.9-1,2.6-.8.7-1.7,1.1-2.8,1.1h-24c-1.5,0-2.7-.3-3.6-1-.8-.6-1.5-1.8-2.1-3.6-1.7-6.2-4.4-10.5-8.1-12.7-3.7-2.3-8.3-3.4-13.8-3.4s-11.7,1.8-15.5,5.4c-3.8,3.6-5.9,9.5-6.2,17.8-.4,9.6-.4,19.5,0,29.5.4,8.3,2.4,14.3,6.2,17.8,3.8,3.6,8.9,5.4,15.5,5.4s10.1-1.2,13.9-3.5c3.8-2.3,6.5-6.6,8-12.7.5-1.8,1.2-3,2-3.6.9-.6,2.1-1,3.6-1h24c1.1,0,2,.4,2.8,1.1.8.7,1.1,1.6,1,2.6-.1,6.6-1.6,12.5-4.4,17.7-2.8,5.2-6.7,9.7-11.6,13.4-5,3.7-10.8,6.5-17.4,8.4-6.6,1.9-13.9,2.9-21.7,2.9Z"/>
    <path class="st1" d="M1085.3,342.4c-6.4,0-12.1-1.2-17.1-3.6-5-2.4-9-5.7-12-9.8-3-4.1-4.4-8.7-4.4-13.9,0-8.3,3.4-14.9,10.3-19.8,6.9-4.9,16-8.2,27.3-9.9l22.2-3.3v-2.5c0-4.2-.9-7.4-2.7-9.7-1.8-2.2-5-3.3-9.8-3.3s-6,.6-8.1,1.9c-2.1,1.3-3.7,3-4.9,5.3-1.1,1.5-2.5,2.3-4.4,2.3h-19.9c-1.3,0-2.3-.4-3-1.1-.7-.8-1-1.7-.9-2.7,0-2.1.8-4.5,2.4-7.3,1.6-2.8,4.1-5.5,7.4-8.2,3.3-2.7,7.6-4.9,12.8-6.7,5.2-1.8,11.5-2.6,19-2.6s14.1.9,19.5,2.6c5.4,1.8,9.9,4.2,13.3,7.4,3.4,3.2,5.9,6.9,7.5,11.2,1.6,4.3,2.4,9,2.4,14.2v53.5c0,1.2-.4,2.2-1.3,3.1-.9.9-1.9,1.3-3.1,1.3h-20.6c-1.3,0-2.4-.4-3.2-1.3-.8-.9-1.2-1.9-1.2-3.1v-6.2c-1.5,2.2-3.6,4.3-6.2,6.2-2.6,1.9-5.7,3.4-9.1,4.5-3.5,1.1-7.5,1.7-12.2,1.7ZM1093.7,322.4c3.4,0,6.5-.7,9.3-2.2,2.8-1.5,5-3.8,6.6-6.9,1.6-3.1,2.4-7,2.4-11.7v-2.5l-15.1,2.6c-5.6.9-9.6,2.4-12.2,4.3-2.5,1.9-3.8,4.2-3.8,6.8s.6,3.7,1.8,5.1c1.2,1.4,2.8,2.5,4.7,3.3,2,.8,4.1,1.1,6.3,1.1Z"/>
    <path class="st1" d="M1205,342.4c-14,0-25.1-3.8-33.4-11.3-8.3-7.5-12.6-18.6-13-33.4v-6.2c.4-9.3,2.5-17.2,6.3-23.8,3.8-6.6,9.2-11.7,16-15.1,6.8-3.5,14.8-5.2,23.9-5.2s19,2.1,25.8,6.2c6.8,4.1,11.9,9.7,15.4,16.7,3.4,7,5.2,15.1,5.2,24.1v4.2c0,1.3-.4,2.3-1.2,3.2-.8.8-1.9,1.2-3.2,1.2h-56.8v1.2c.1,3.4.7,6.5,1.9,9.3,1.1,2.8,2.8,5,5,6.7,2.2,1.6,4.9,2.5,8.1,2.5s4.4-.4,5.9-1.1c1.6-.8,2.9-1.6,4-2.6,1.1-1,1.9-1.8,2.5-2.5,1.1-1.3,1.9-2.1,2.6-2.4.7-.3,1.7-.4,3.1-.4h22c1.2,0,2.2.4,2.9,1.1.8.7,1.1,1.6,1,2.8-.1,2-1.1,4.4-3,7.2-1.9,2.8-4.6,5.6-8.3,8.4-3.6,2.8-8.1,5-13.6,6.8-5.4,1.8-11.8,2.6-19,2.6ZM1189.9,285.6h30v-.4c0-3.9-.6-7.2-1.7-9.9-1.1-2.8-2.8-4.9-5.2-6.4-2.3-1.5-5.1-2.3-8.3-2.3s-5.7.8-8,2.3c-2.2,1.5-4,3.7-5.2,6.4-1.2,2.8-1.8,6.1-1.8,9.9v.4Z"/>
    <path class="st1" d="M1315,340.7c-7.6,0-14.1-1.2-19.6-3.6-5.5-2.4-9.7-6.2-12.7-11.3-3-5.1-4.4-11.7-4.4-19.8v-33.8h-13.9c-1.3,0-2.4-.4-3.3-1.2-.9-.8-1.3-1.9-1.3-3.2v-14.2c0-1.3.4-2.3,1.3-3.2.9-.8,2-1.2,3.3-1.2h13.9v-29c0-1.3.4-2.3,1.3-3.2.9-.8,1.9-1.2,3.1-1.2h20.6c1.3,0,2.4.4,3.2,1.2.8.8,1.2,1.9,1.2,3.2v29h22.2c1.3,0,2.4.4,3.3,1.2.9.8,1.3,1.9,1.3,3.2v14.2c0,1.3-.4,2.3-1.3,3.2-.9.8-2,1.2-3.3,1.2h-22.2v31.3c0,4,.8,7.2,2.3,9.5,1.5,2.3,4.1,3.5,7.8,3.5h13.7c1.3,0,2.4.4,3.2,1.2.8.8,1.2,1.9,1.2,3.2v15.3c0,1.2-.4,2.2-1.2,3.1-.8.9-1.9,1.3-3.2,1.3h-16.5Z"/>
    <path class="st1" d="M1378.4,342.4c-6.4,0-12.1-1.2-17.1-3.6-5-2.4-9-5.7-12-9.8-3-4.1-4.4-8.7-4.4-13.9,0-8.3,3.4-14.9,10.3-19.8,6.9-4.9,16-8.2,27.3-9.9l22.2-3.3v-2.5c0-4.2-.9-7.4-2.7-9.7-1.8-2.2-5-3.3-9.8-3.3s-6,.6-8.1,1.9c-2.1,1.3-3.7,3-4.9,5.3-1.1,1.5-2.5,2.3-4.4,2.3h-19.9c-1.3,0-2.3-.4-3-1.1-.7-.8-1-1.7-.9-2.7,0-2.1.8-4.5,2.4-7.3,1.6-2.8,4.1-5.5,7.4-8.2,3.3-2.7,7.6-4.9,12.8-6.7,5.2-1.8,11.5-2.6,19-2.6s14.1.9,19.5,2.6c5.4,1.8,9.9,4.2,13.3,7.4,3.4,3.2,5.9,6.9,7.5,11.2,1.6,4.3,2.4,9,2.4,14.2v53.5c0,1.2-.4,2.2-1.3,3.1-.9.9-1.9,1.3-3.1,1.3h-20.6c-1.3,0-2.4-.4-3.2-1.3-.8-.9-1.2-1.9-1.2-3.1v-6.2c-1.5,2.2-3.6,4.3-6.2,6.2-2.6,1.9-5.7,3.4-9.1,4.5-3.5,1.1-7.5,1.7-12.2,1.7ZM1386.7,322.4c3.4,0,6.5-.7,9.3-2.2,2.8-1.5,5-3.8,6.6-6.9,1.6-3.1,2.4-7,2.4-11.7v-2.5l-15.1,2.6c-5.6.9-9.6,2.4-12.2,4.3-2.5,1.9-3.8,4.2-3.8,6.8s.6,3.7,1.8,5.1c1.2,1.4,2.8,2.5,4.7,3.3,2,.8,4.1,1.1,6.3,1.1Z"/>
    <path class="st1" d="M1459.9,340.7c-1.3,0-2.4-.4-3.2-1.3-.8-.9-1.2-1.9-1.2-3.1v-82.6c0-1.3.4-2.3,1.2-3.2.8-.8,1.9-1.2,3.2-1.2h20.4c1.3,0,2.4.4,3.3,1.2.9.8,1.3,1.9,1.3,3.2v6.7c3-3.6,6.9-6.7,11.9-9.1,5-2.5,10.8-3.7,17.6-3.7s12.9,1.5,18.2,4.6c5.3,3,9.4,7.5,12.4,13.4,3,5.9,4.5,13.1,4.5,21.8v49.1c0,1.2-.4,2.2-1.2,3.1-.8.9-1.9,1.3-3.2,1.3h-22.4c-1.2,0-2.2-.4-3.1-1.3-.9-.9-1.3-1.9-1.3-3.1v-48c0-5.5-1.3-9.8-4-12.7-2.7-3-6.6-4.5-11.8-4.5s-8.7,1.5-11.6,4.5c-2.9,3-4.4,7.2-4.4,12.7v48c0,1.2-.4,2.2-1.3,3.1-.9.9-1.9,1.3-3.1,1.3h-22.2Z"/>
    <path class="st1" d="M1613.3,342.4c-9.9,0-18.3-1.6-25.1-4.7-6.8-3.2-12-7.7-15.6-13.6-3.6-5.9-5.7-13-6.1-21.2-.1-2.3-.2-5-.2-8s0-5.6.2-7.8c.5-8.3,2.6-15.4,6.4-21.3,3.8-5.9,9.1-10.4,15.9-13.5,6.8-3.2,15-4.7,24.6-4.7s18,1.6,24.8,4.7c6.8,3.2,12.1,7.7,15.9,13.5,3.8,5.9,5.9,13,6.4,21.3.1,2.2.2,4.8.2,7.8s0,5.7-.2,8c-.5,8.2-2.5,15.3-6.1,21.2-3.6,5.9-8.8,10.5-15.6,13.6-6.8,3.2-15.2,4.7-25.3,4.7ZM1613.3,321c5.3,0,9.2-1.6,11.6-4.7,2.4-3.2,3.8-7.9,4.2-14.2.1-1.8.2-4.1.2-7s0-5.3-.2-7c-.4-6.2-1.7-10.9-4.2-14.2-2.4-3.2-6.3-4.8-11.6-4.8s-8.9,1.6-11.5,4.8c-2.5,3.2-3.9,7.9-4.2,14.2-.1,1.8-.2,4.1-.2,7s0,5.3.2,7c.2,6.3,1.6,11.1,4.2,14.2,2.5,3.2,6.4,4.7,11.5,4.7Z"/>
  </g>
</svg>